ply
format ascii 1.0
comment PCL generated
element vertex 22
property float x
property float y
property float z
element face 1
property list uchar int vertex_indices
end_header
-0.018123 0.23267 3.4742  
-0.016617 0.24625 3.5249  
0.017175 2.9788 4.2224  
0.028133 4.9197 4.2578  
0.028179 5.1634 4.2153  
0.026798 5.8743 4.038  
-0.001564 6.2857 2.9633  
-0.002458 6.2931 2.9304  
-0.0036081 6.295 2.8895  
-0.0080902 6.2977 2.7309  
-0.026205 6.3008 2.0914  
-0.030501 6.2591 1.9474  
-0.030748 6.2484 1.9406  
-0.069761 2.4238 1.2565  
-0.073735 2.0304 1.1875  
-0.074069 1.997 1.1818  
-0.0846 0.94144 1.0013  
-0.090035 0.38723 0.90987  
-0.090007 0.37644 0.91281  
-0.08905 0.36794 0.94809  
-0.075051 0.33737 1.4474  
-0.052565 0.29483 2.2482  
22 0 1 2 3 4 5 6 7 8 9 10 11 12 13 14 15 16 17 18 19 20 21
